# xmcd
#
# Track frame offsets: 
#        150
#        24309
#        59539
#        92022
#        117138
#        143817
#        179150
#        200861
#
# Disc length: 3041 seconds
#
# Revision: 3
# Processed by: cddbd v1.5.2PL0 Copyright (c) Steve Scherf et al.
# Submitted via: ExactAudioCopy v0.95b3
#
DISCID=740bdf08
DTITLE=Otis Rush - Screamin' And Cryin'
DYEAR=1974
DGENRE=blues
TTITLE0=Looking Back
TTITLE1=You're Gonna Need Me
TTITLE2=It's My Own Fault
TTITLE3=I Can't Quit You Baby
TTITLE4=Every Day I Have The Blues
TTITLE5=A Beautiful Memory
TTITLE6=I Got News For You
TTITLE7=I Can't Quit You Baby
EXTD=Evidence  26014-2\n\nOtis Rush:  guitar, vocals\nJimmy Dawkins:  
EXTD=guitar\nJerome Van Jones:  organ, piano (#4]\nSunnyland Slim:  pi
EXTD=ano (#1]\nWillie Mabon:  piano\nJames Green:  bass guitar\nBob Pl
EXTD=unkett:  drums\n\nSubmitted 6/30/97\n[Jmccoy@efn.org]
EXTT0=
EXTT1=
EXTT2=
EXTT3=
EXTT4=
EXTT5=
EXTT6=
EXTT7=
PLAYORDER=
